HIERARCHY
ROOT hip
{
  OFFSET 0 0 0
  CHANNELS 6 Xposition Yposition Zposition Zrotation Yrotation Xrotation
  JOINT abdomen
  {
    OFFSET 0 20.6881 -0.73152
    CHANNELS 3 Zrotation Xrotation Yrotation
    JOINT chest
    {
      OFFSET 0 11.7043 -0.48768
      CHANNELS 3 Zrotation Xrotation Yrotation
      JOINT neck
      {
        OFFSET 0 22.1894 -2.19456
        CHANNELS 3 Zrotation Xrotation Yrotation
        JOINT head
        {
          OFFSET -0.24384 7.07133 1.2192
          CHANNELS 3 Zrotation Xrotation Yrotation
          JOINT leftEye
          {
            OFFSET 4.14528 8.04674 8.04672
            CHANNELS 3 Zrotation Xrotation Yrotation
            End Site
            {
              OFFSET 1 0 0
            }
          }
          JOINT rightEye
          {
            OFFSET -3.6576 8.04674 8.04672
            CHANNELS 3 Zrotation Xrotation Yrotation
            End Site
            {
              OFFSET 1 0 0
            }
          }
        }
      }
      JOINT rCollar
      {
        OFFSET -2.68224 19.2634 -4.8768
        CHANNELS 3 Zrotation Xrotation Yrotation
        JOINT rShldr
        {
          OFFSET -8.77824 -1.95073 1.46304
          CHANNELS 3 Zrotation Xrotation Yrotation
          JOINT rForeArm
          {
            OFFSET -28.1742 -1.7115 0.48768
            CHANNELS 3 Zrotation Xrotation Yrotation
            JOINT rHand
            {
              OFFSET -22.5879 0.773209 7.07136
              CHANNELS 3 Zrotation Xrotation Yrotation
              JOINT rThumb1
              {
                OFFSET -1.2192 -0.487915 3.41376
                CHANNELS 3 Zrotation Xrotation Yrotation
                JOINT rThumb2
                {
                  OFFSET -3.37035 -0.52449 3.41376
                  CHANNELS 3 Zrotation Xrotation Yrotation
                  End Site
                  {
                    OFFSET -1.78271 -1.18214 1.43049
                  }
                }
              }
              JOINT rIndex1
              {
                OFFSET -7.75947 0.938293 5.60832
                CHANNELS 3 Zrotation Xrotation Yrotation
                JOINT rIndex2
                {
                  OFFSET -2.54057 -0.884171 1.56538
                  CHANNELS 3 Zrotation Xrotation Yrotation
                  End Site
                  {
                    OFFSET -1.62519 -0.234802 1.16502
                  }
                }
              }
              JOINT rMid1
              {
                OFFSET -8.24714 1.18213 3.41376
                CHANNELS 3 Zrotation Xrotation Yrotation
                JOINT rMid2
                {
                  OFFSET -3.10165 -0.590103 1.0647
                  CHANNELS 3 Zrotation Xrotation Yrotation
                  End Site
                  {
                    OFFSET -2.48547 -0.328903 0.83742
                  }
                }
              }
              JOINT rRing1
              {
                OFFSET -8.82822 0.546677 1.51678
                CHANNELS 3 Zrotation Xrotation Yrotation
                JOINT rRing2
                {
                  OFFSET -2.60934 -0.819778 -0.0198488
                  CHANNELS 3 Zrotation Xrotation Yrotation
                  End Site
                  {
                    OFFSET -2.33842 -0.294052 0.168128
                  }
                }
              }
              JOINT rPinky1
              {
                OFFSET -8.27202 -0.0477905 -0.4584
                CHANNELS 3 Zrotation Xrotation Yrotation
                JOINT rPinky2
                {
                  OFFSET -1.82734 -0.647385 -0.700984
                  CHANNELS 3 Zrotation Xrotation Yrotation
                  End Site
                  {
                    OFFSET -1.69225 -0.51767 -0.607171
                  }
                }
              }
            }
          }
        }
      }
      JOINT lCollar
      {
        OFFSET 2.68224 19.2634 -4.8768
        CHANNELS 3 Zrotation Xrotation Yrotation
        JOINT lShldr
        {
          OFFSET 8.77824 -1.95073 1.46304
          CHANNELS 3 Zrotation Xrotation Yrotation
          JOINT lForeArm
          {
            OFFSET 28.1742 -1.7115 0.48768
            CHANNELS 3 Zrotation Xrotation Yrotation
            JOINT lHand
            {
              OFFSET 22.5879 0.773209 7.07136
              CHANNELS 3 Zrotation Xrotation Yrotation
              JOINT lThumb1
              {
                OFFSET 1.2192 -0.487915 3.41376
                CHANNELS 3 Zrotation Xrotation Yrotation
                JOINT lThumb2
                {
                  OFFSET 3.37035 -0.52449 3.41376
                  CHANNELS 3 Zrotation Xrotation Yrotation
                  End Site
                  {
                    OFFSET 1.78271 -1.18214 1.43049
                  }
                }
              }
              JOINT lIndex1
              {
                OFFSET 7.75947 0.938293 5.60832
                CHANNELS 3 Zrotation Xrotation Yrotation
                JOINT lIndex2
                {
                  OFFSET 2.54057 -0.884171 1.56538
                  CHANNELS 3 Zrotation Xrotation Yrotation
                  End Site
                  {
                    OFFSET 1.62519 -0.234802 1.16502
                  }
                }
              }
              JOINT lMid1
              {
                OFFSET 8.24714 1.18213 3.41376
                CHANNELS 3 Zrotation Xrotation Yrotation
                JOINT lMid2
                {
                  OFFSET 3.10165 -0.590103 1.0647
                  CHANNELS 3 Zrotation Xrotation Yrotation
                  End Site
                  {
                    OFFSET 2.48547 -0.328903 0.83742
                  }
                }
              }
              JOINT lRing1
              {
                OFFSET 8.82822 0.546677 1.51678
                CHANNELS 3 Zrotation Xrotation Yrotation
                JOINT lRing2
                {
                  OFFSET 2.60934 -0.819778 -0.0198488
                  CHANNELS 3 Zrotation Xrotation Yrotation
                  End Site
                  {
                    OFFSET 2.33842 -0.294052 0.168128
                  }
                }
              }
              JOINT lPinky1
              {
                OFFSET 8.27202 -0.0477905 -0.4584
                CHANNELS 3 Zrotation Xrotation Yrotation
                JOINT lPinky2
                {
                  OFFSET 1.82734 -0.647385 -0.700984
                  CHANNELS 3 Zrotation Xrotation Yrotation
                  End Site
                  {
                    OFFSET 1.69225 -0.51767 -0.607171
                  }
                }
              }
            }
          }
        }
      }
    }
  }
  JOINT rButtock
  {
    OFFSET -8.77824 4.35084 1.2192
    CHANNELS 3 Zrotation Xrotation Yrotation
    JOINT rThigh
    {
      OFFSET 0 -1.70687 -2.19456
      CHANNELS 3 Zrotation Xrotation Yrotation
      JOINT rShin
      {
        OFFSET 0 -36.8199 0.73152
        CHANNELS 3 Zrotation Xrotation Yrotation
        JOINT rFoot
        {
          OFFSET 0.73152 -45.1104 -5.12064
          CHANNELS 3 Zrotation Xrotation Yrotation
          End Site
          {
            OFFSET -1.1221 -3.69964 12.103
          }
        }
      }
    }
  }
  JOINT lButtock
  {
    OFFSET 8.77824 4.35084 1.2192
    CHANNELS 3 Zrotation Xrotation Yrotation
    JOINT lThigh
    {
      OFFSET 0 -1.70687 -2.19456
      CHANNELS 3 Zrotation Xrotation Yrotation
      JOINT lShin
      {
        OFFSET 0 -36.8199 0.73152
        CHANNELS 3 Zrotation Xrotation Yrotation
        JOINT lFoot
        {
          OFFSET -0.73152 -45.1104 -5.12064
          CHANNELS 3 Zrotation Xrotation Yrotation
          End Site
          {
            OFFSET 1.1221 -3.69964 12.103
          }
        }
      }
    }
  }
}
MOTION
Frames:	5
Frame Time:	0.03333
-0.2267500006382761 54.6796977519989 -0.1719999978377018 1.1225427389144897 45.47059631347656 1.878886342048645 -7.201857566833496 8.472908020019531 -3.043120861053467 5.034023284912109 -10.554817199707031 -0.41261938214302063 -10.209403991699219 19.537595748901367 -15.615201950073242 16.71989631652832 -21.0049991607666 -27.810495376586914 -0.0 0.0 -0.0 -0.0 0.0 -0.0 -0.0 0.0 -0.0 58.65339279174805 -0.5004456639289856 24.200302124023438 -28.24349594116211 -32.339599609375 70.99688720703125 -0.38429826498031616 17.667617797851562 2.563455581665039 -0.0 0.0 -0.0 -0.0 0.0 -0.0 -0.0 0.0 -0.0 7.73087739944458 5.47489595413208 0.41732463240623474 -0.0 0.0 -0.0 2.9054994583129883 0.9650753736495972 0.10300876200199127 -0.0 0.0 -0.0 10.278595924377441 0.7317469120025635 0.026285577565431595 -0.0 0.0 -0.0 2.221662759780884 -0.7335850596427917 -0.20831839740276337 -0.0 0.0 -0.0 -64.39459991455078 78.77618408203125 -10.457884788513184 27.64109992980957 -41.99420166015625 -87.5818862915039 40.86014175415039 -79.34068298339844 48.35885238647461 -0.0 0.0 -0.0 -0.0 0.0 -0.0 -0.0 0.0 -0.0 -7.73087739944458 5.47489595413208 -0.41732463240623474 -0.0 0.0 -0.0 -2.9054994583129883 0.9650753736495972 -0.10300876200199127 -0.0 0.0 -0.0 -10.278595924377441 0.7317469120025635 -0.026285577565431595 -0.0 0.0 -0.0 -2.221662759780884 -0.7335850596427917 0.20831839740276337 -0.0 0.0 -0.0 -62.42479705810547 -46.336997985839844 -63.154296875 -1.760129690170288 66.49030303955078 1.6815884113311768 -0.12643428146839142 4.5060553550720215 9.145829200744629 -0.0 0.0 -0.0 28.396686553955078 -25.161096572875977 32.67949676513672 3.344663381576538 80.3087387084961 -6.669775485992432 12.409391403198242 -28.931398391723633 25.36409568786621
-0.22579000060432008 54.683101177215576 -0.17399999778717756 1.1920902729034424 45.471195220947266 1.9338539838790894 -7.244550704956055 8.480927467346191 -3.0320987701416016 5.030829429626465 -10.558002471923828 -0.41198650002479553 -10.219696044921875 19.500690460205078 -15.609296798706055 16.73090171813965 -20.95009994506836 -27.800899505615234 -0.0 0.0 -0.0 -0.0 0.0 -0.0 -0.0 0.0 -0.0 58.6328010559082 -0.49875181913375854 24.20110321044922 -28.242511749267578 -32.33358383178711 70.98909759521484 -0.3998022973537445 17.688793182373047 2.568974733352661 -0.0 0.0 -0.0 -0.0 0.0 -0.0 -0.0 0.0 -0.0 7.73087739944458 5.47489595413208 0.41732463240623474 -0.0 0.0 -0.0 2.9054994583129883 0.9650753736495972 0.10300876200199127 -0.0 0.0 -0.0 10.278595924377441 0.7317469120025635 0.026285577565431595 -0.0 0.0 -0.0 2.221662759780884 -0.7335850596427917 -0.20831839740276337 -0.0 0.0 -0.0 -64.27429962158203 78.78031158447266 -10.559005737304688 27.642290115356445 -41.993900299072266 -87.57440948486328 40.89240264892578 -79.36289978027344 48.4045524597168 -0.0 0.0 -0.0 -0.0 0.0 -0.0 -0.0 0.0 -0.0 -7.73087739944458 5.47489595413208 -0.41732463240623474 -0.0 0.0 -0.0 -2.9054994583129883 0.9650753736495972 -0.10300876200199127 -0.0 0.0 -0.0 -10.278595924377441 0.7317469120025635 -0.026285577565431595 -0.0 0.0 -0.0 -2.221662759780884 -0.7335850596427917 0.20831839740276337 -0.0 0.0 -0.0 -62.49589920043945 -46.316402435302734 -63.19369888305664 -1.757035493850708 66.48689270019531 1.6789451837539673 -0.13012909889221191 4.512336254119873 9.173101425170898 -0.0 0.0 -0.0 28.343294143676758 -25.156200408935547 32.690391540527344 3.333831310272217 80.2933120727539 -6.654339790344238 12.401512145996094 -28.92499542236328 25.354005813598633
-0.22822000055384706 54.686301946640015 -0.17399999778717756 1.227919340133667 45.470703125 1.960060715675354 -7.2807087898254395 8.491626739501953 -3.0179216861724854 5.028448581695557 -10.55960464477539 -0.41033095121383667 -10.244586944580078 19.44439697265625 -15.602391242980957 16.76419448852539 -20.83860206604004 -27.789400100708008 -0.0 0.0 -0.0 -0.0 0.0 -0.0 -0.0 0.0 -0.0 58.613094329833984 -0.5033469796180725 24.202896118164062 -28.241092681884766 -32.32530975341797 70.97819519042969 -0.4147627353668213 17.69817543029785 2.5727295875549316 -0.0 0.0 -0.0 -0.0 0.0 -0.0 -0.0 0.0 -0.0 7.73087739944458 5.47489595413208 0.41732463240623474 -0.0 0.0 -0.0 2.9054994583129883 0.9650753736495972 0.10300876200199127 -0.0 0.0 -0.0 10.278595924377441 0.7317469120025635 0.026285577565431595 -0.0 0.0 -0.0 2.221662759780884 -0.7335850596427917 -0.20831839740276337 -0.0 0.0 -0.0 -64.1321029663086 78.7966079711914 -10.673908233642578 27.642698287963867 -41.99549102783203 -87.57279968261719 40.91758728027344 -79.35997772216797 48.42485046386719 -0.0 0.0 -0.0 -0.0 0.0 -0.0 -0.0 0.0 -0.0 -7.73087739944458 5.47489595413208 -0.41732463240623474 -0.0 0.0 -0.0 -2.9054994583129883 0.9650753736495972 -0.10300876200199127 -0.0 0.0 -0.0 -10.278595924377441 0.7317469120025635 -0.026285577565431595 -0.0 0.0 -0.0 -2.221662759780884 -0.7335850596427917 0.20831839740276337 -0.0 0.0 -0.0 -62.550498962402344 -46.29590606689453 -63.2261962890625 -1.7559095621109009 66.48597717285156 1.6793763637542725 -0.13339906930923462 4.514801502227783 9.19682502746582 -0.0 0.0 -0.0 28.306503295898438 -25.151691436767578 32.70170211791992 3.3273351192474365 80.28241729736328 -6.643893718719482 12.391302108764648 -28.919404983520508 25.340303421020508
-0.23355000039373408 54.68850135803223 -0.1719999978377018 1.2268640995025635 45.4755973815918 1.962298035621643 -7.287285327911377 8.50236988067627 -3.0044023990631104 5.027067184448242 -10.559712409973145 -0.40649163722991943 -10.30048942565918 19.352699279785156 -15.590408325195312 16.84469985961914 -20.621402740478516 -27.766300201416016 -0.0 0.0 -0.0 -0.0 0.0 -0.0 -0.0 0.0 -0.0 58.59359359741211 -0.5124220848083496 24.200597763061523 -28.24100112915039 -32.3256950378418 70.9800033569336 -0.38476309180259705 17.677717208862305 2.564957857131958 -0.0 0.0 -0.0 -0.0 0.0 -0.0 -0.0 0.0 -0.0 7.73087739944458 5.47489595413208 0.41732463240623474 -0.0 0.0 -0.0 2.9054994583129883 0.9650753736495972 0.10300876200199127 -0.0 0.0 -0.0 10.278595924377441 0.7317469120025635 0.026285577565431595 -0.0 0.0 -0.0 2.221662759780884 -0.7335850596427917 -0.20831839740276337 -0.0 0.0 -0.0 -63.978904724121094 78.8319091796875 -10.796311378479004 27.64099884033203 -42.00040054321289 -87.58411407470703 40.64157485961914 -79.31449127197266 48.14396286010742 -0.0 0.0 -0.0 -0.0 0.0 -0.0 -0.0 0.0 -0.0 -7.73087739944458 5.47489595413208 -0.41732463240623474 -0.0 0.0 -0.0 -2.9054994583129883 0.9650753736495972 -0.10300876200199127 -0.0 0.0 -0.0 -10.278595924377441 0.7317469120025635 -0.026285577565431595 -0.0 0.0 -0.0 -2.221662759780884 -0.7335850596427917 0.20831839740276337 -0.0 0.0 -0.0 -62.55409240722656 -46.28460693359375 -63.24159240722656 -1.7536402940750122 66.48668670654297 1.6781715154647827 -0.13307486474514008 4.509058952331543 9.20032024383545 -0.0 0.0 -0.0 28.31690216064453 -25.162790298461914 32.70680236816406 3.3294308185577393 80.28659057617188 -6.646183013916016 12.381454467773438 -28.9171142578125 25.325885772705078
-0.24048000004768255 54.68999743461609 -0.16699999796401244 1.1917067766189575 45.488800048828125 1.944243311882019 -7.283247947692871 8.512801170349121 -2.988860845565796 5.027232646942139 -10.557389259338379 -0.40214136242866516 -10.364290237426758 19.245389938354492 -15.574394226074219 16.951807022094727 -20.355600357055664 -27.733903884887695 -0.0 0.0 -0.0 -0.0 0.0 -0.0 -0.0 0.0 -0.0 58.5786018371582 -0.5281911492347717 24.191104888916016 -28.24139976501465 -32.33049392700195 70.98819732666016 -0.39821985363960266 17.65509605407715 2.5637710094451904 -0.0 0.0 -0.0 -0.0 0.0 -0.0 -0.0 0.0 -0.0 7.73087739944458 5.47489595413208 0.41732463240623474 -0.0 0.0 -0.0 2.9054994583129883 0.9650753736495972 0.10300876200199127 -0.0 0.0 -0.0 10.278595924377441 0.7317469120025635 0.026285577565431595 -0.0 0.0 -0.0 2.221662759780884 -0.7335850596427917 -0.20831839740276337 -0.0 0.0 -0.0 -63.79182052612305 78.88150787353516 -10.947991371154785 27.63850975036621 -42.007789611816406 -87.60149383544922 40.413108825683594 -79.25763702392578 47.897315979003906 -0.0 0.0 -0.0 -0.0 0.0 -0.0 -0.0 0.0 -0.0 -7.73087739944458 5.47489595413208 -0.41732463240623474 -0.0 0.0 -0.0 -2.9054994583129883 0.9650753736495972 -0.10300876200199127 -0.0 0.0 -0.0 -10.278595924377441 0.7317469120025635 -0.026285577565431595 -0.0 0.0 -0.0 -2.221662759780884 -0.7335850596427917 0.20831839740276337 -0.0 0.0 -0.0 -62.53290557861328 -46.28139877319336 -63.24700164794922 -1.7521657943725586 66.48959350585938 1.6779377460479736 -0.13125011324882507 4.498021602630615 9.187422752380371 -0.0 0.0 -0.0 28.35060691833496 -25.18059539794922 32.70790100097656 3.3352108001708984 80.29549407958984 -6.653841495513916 12.372276306152344 -28.91260528564453 25.314096450805664
